<?xml version="1.0" encoding="utf-8"?>
<!-- Generator: Adobe Illustrator 23.0.6, SVG Export Plug-In . SVG Version: 6.00 Build 0)  -->
<svg version="1.1" id="Layer_1" xmlns="http://www.w3.org/2000/svg" xmlns:xlink="http://www.w3.org/1999/xlink" x="0px" y="0px"
	 viewBox="0 0 4465 1024" style="enable-background:new 0 0 4465 1024;" xml:space="preserve">
<style type="text/css">
	.st0{enable-background:new    ;}
	.st1{fill:#FFFFFF;}
</style>
<title>wp-logo</title>
<g>
	<rect x="-44" y="-10.1" width="4553" height="1044.2"/>
</g>
<g class="st0">
	<path class="st1" d="M375.2,293.6c1,0,13.4,12.3,37,37v185c0,1-12.3,13.4-37,37c-1,0-5.1-4.1-12.3-12.3V305.9
		C362.8,304.9,366.9,300.8,375.2,293.6z M367.8,567.3c31.6,7.4,48.9,11.9,51.8,13.6c3.1,6.4,24.5,40.9,64.1,103.6
		c-6.4,34.5-10.5,51.8-12.3,51.8h-1.2c-10.9,0-17.9-4.5-21-13.6c-6.4-8.8-35.1-54.9-86.3-138.1C364.5,576,366.1,570.2,367.8,567.3z
		 M605.7,571l1.2,2.5v2.5c-24.5,52.4-52.4,102.6-83.8,150.4c-3.1,8.2-10.5,12.3-22.2,12.3c-2.1-3.7-6.2-20.5-12.3-50.6
		c42.7-69.9,64.9-105.2,66.6-106C583.3,574.7,600.2,571,605.7,571z M597.1,293.6c1,0,5.1,4.1,12.3,12.3v209.6c0,1-12.3,13.4-37,37
		c-1,0-5.1-4.1-12.3-12.3V330.6C560.1,329.6,572.5,317.2,597.1,293.6z M620.5,589.5c2.1,1.8,22.2,33.5,60.4,94.9
		c-6.4,34.5-10.5,51.8-12.3,51.8h-1.2c-10.9,0-17.9-4.5-21-13.6l-53-83.8C609.9,606.8,618.9,590.4,620.5,589.5z M803,571
		c2.5,8.2,3.7,14.4,3.7,18.5L713,736.3c-8.2,1.6-13.2,2.5-14.8,2.5c-2.1-3.7-6.2-20.5-12.3-50.6c42.7-69.9,64.9-105.2,66.6-106
		C780.6,574.7,797.5,571,803,571z M794.4,293.6c1,0,5.1,4.1,12.3,12.3v234.3c0,1-4.1,5.1-12.3,12.3c-1,0-13.4-12.3-37-37v-185
		C757.4,329.6,769.7,317.2,794.4,293.6z"/>
	<path class="st1" d="M849.9,312.1c1,0,13.4,12.3,37,37v125.8c0,1-12.3,13.4-37,37c-1,0-5.1-4.1-12.3-12.3V324.4
		C837.6,323.4,841.7,319.3,849.9,312.1z M849.9,524.2c1,0,13.4,12.3,37,37v140.6c0,1-12.3,13.4-37,37c-1,0-5.1-4.1-12.3-12.3V536.5
		C837.6,535.5,841.7,531.4,849.9,524.2z M874.6,298.5h175.1c1,0,5.1,4.1,12.3,12.3c0,1-12.3,13.4-37,37H899.2c-1,0-13.4-12.3-37-37
		C862.2,309.8,866.3,305.7,874.6,298.5z M886.9,492.1h145.5c1,0,9.2,8.2,24.7,24.7v1.2c0,1-8.2,9.2-24.7,24.7H886.9
		c-1,0-9.2-8.2-24.7-24.7v-1.2C862.2,515.8,870.4,507.5,886.9,492.1z M1073.1,310.9c1,0,5.1,4.1,12.3,12.3v175.1
		c0,1-4.1,5.1-12.3,12.3c-1,0-13.4-12.3-37-37V347.8C1036.1,346.8,1048.4,334.5,1073.1,310.9z M1073.1,524.2c1,0,5.1,4.1,12.3,12.3
		v189.9c0,1-4.1,5.1-12.3,12.3c-1,0-13.4-12.3-37-37V561.2C1036.1,560.1,1048.4,547.8,1073.1,524.2z"/>
	<path class="st1" d="M1116.6,299.8h1.2c1.2,0,17.3,16.4,48.1,49.3v125.8c0,1-12.3,13.4-37,37c-1,0-5.1-4.1-12.3-12.3V299.8z
		 M1128.9,524.2c1,0,13.4,12.3,37,37v125.8c0,1-12.3,13.4-37,37c-1,0-5.1-4.1-12.3-12.3V536.5
		C1116.6,535.5,1120.7,531.4,1128.9,524.2z M1177,689.4h125.8c1,0,13.4,12.3,37,37c0,1-4.1,5.1-12.3,12.3h-175.1
		c-1,0-5.1-4.1-12.3-12.3C1140,725.4,1152.3,713,1177,689.4z"/>
	<path class="st1" d="M1395.5,299.8h1.2c1.2,0,17.3,16.4,48.1,49.3v125.8c0,1-12.3,13.4-37,37c-1,0-5.1-4.1-12.3-12.3V299.8z
		 M1407.9,524.2c1,0,13.4,12.3,37,37v125.8c0,1-12.3,13.4-37,37c-1,0-5.1-4.1-12.3-12.3V536.5
		C1395.5,535.5,1399.6,531.4,1407.9,524.2z M1456,689.4h125.8c1,0,13.4,12.3,37,37c0,1-4.1,5.1-12.3,12.3h-175.1
		c-1,0-5.1-4.1-12.3-12.3C1419,725.4,1431.3,713,1456,689.4z"/>
	<path class="st1" d="M1686.9,312.1c1,0,13.4,12.3,37,37v125.8c0,1-12.3,13.4-37,37c-1,0-5.1-4.1-12.3-12.3V324.4
		C1674.5,323.4,1678.6,319.3,1686.9,312.1z M1686.9,524.2c1,0,13.4,12.3,37,37v125.8c0,1-12.3,13.4-37,37c-1,0-5.1-4.1-12.3-12.3
		V536.5C1674.5,535.5,1678.6,531.4,1686.9,524.2z M1734.9,689.4h125.8c1,0,13.4,12.3,37,37c0,1-4.1,5.1-12.3,12.3h-175.1
		c-1,0-5.1-4.1-12.3-12.3C1698,725.4,1710.3,713,1734.9,689.4z M1711.5,298.5h175.1c1,0,5.1,4.1,12.3,12.3c0,1-12.3,13.4-37,37
		h-125.8c-1,0-13.4-12.3-37-37C1699.2,309.8,1703.3,305.7,1711.5,298.5z M1723.8,492.1h145.5c1,0,9.2,8.2,24.7,24.7v1.2
		c0,1-8.2,9.2-24.7,24.7h-145.5c-1,0-9.2-8.2-24.7-24.7v-1.2C1699.2,515.8,1707.4,507.5,1723.8,492.1z"/>
	<path class="st1" d="M1965.8,298.5H2189c1,0,5.1,4.1,12.3,12.3c0,1-12.3,13.4-37,37h-173.9c-1,0-13.4-12.3-37-37
		C1953.5,309.8,1957.6,305.7,1965.8,298.5z M2073.1,370c1,0,13.4,12.3,37,37v99.9c0,1-12.3,13.4-37,37c-1,0-5.1-4.1-12.3-12.3V382.4
		C2060.8,381.3,2064.9,377.2,2073.1,370z M2097.8,566.1c1,0,5.1,4.1,12.3,12.3v148c0,1-4.1,5.1-12.3,12.3c-1,0-13.4-12.3-37-37
		v-98.6C2060.8,602.1,2073.1,589.7,2097.8,566.1z"/>
	<path class="st1" d="M2244.8,312.1c1,0,13.4,12.3,37,37v125.8c0,1-12.3,13.4-37,37c-1,0-5.1-4.1-12.3-12.3V324.4
		C2232.5,323.4,2236.6,319.3,2244.8,312.1z M2292.9,689.4h125.8c1,0,13.4,12.3,37,37c0,1-4.1,5.1-12.3,12.3h-175.1
		c-1,0-5.1-4.1-12.3-12.3C2255.9,725.4,2268.3,713,2292.9,689.4z M2269.5,298.5h175.1c1,0,5.1,4.1,12.3,12.3c0,1-12.3,13.4-37,37
		h-125.8c-1,0-13.4-12.3-37-37C2257.2,309.8,2261.3,305.7,2269.5,298.5z M2281.8,492.1h145.5c1,0,9.2,8.2,24.7,24.7v1.2
		c0,1-8.2,9.2-24.7,24.7h-145.5c-1,0-9.2-8.2-24.7-24.7v-1.2C2257.2,515.8,2265.4,507.5,2281.8,492.1z M2468,525.4
		c1,0,5.1,4.1,12.3,12.3v175.1c0,1-4.1,5.1-12.3,12.3c-1,0-13.4-12.3-37-37V562.4C2431,561.4,2443.4,549,2468,525.4z"/>
	<path class="st1" d="M2802.8,312.1c1,0,13.4,12.3,37,37v125.8c0,1-12.3,13.4-37,37c-1,0-5.1-4.1-12.3-12.3V324.4
		C2790.5,323.4,2794.6,319.3,2802.8,312.1z M2802.8,524.2c1,0,13.4,12.3,37,37v140.6c0,1-12.3,13.4-37,37c-1,0-5.1-4.1-12.3-12.3
		V536.5C2790.5,535.5,2794.6,531.4,2802.8,524.2z M2827.5,298.5h175.1c1,0,5.1,4.1,12.3,12.3c0,1-12.3,13.4-37,37h-125.8
		c-1,0-13.4-12.3-37-37C2815.1,309.8,2819.2,305.7,2827.5,298.5z M2839.8,492.1h145.5c1,0,9.2,8.2,24.7,24.7v1.2
		c0,1-8.2,9.2-24.7,24.7h-145.5c-1,0-9.2-8.2-24.7-24.7v-1.2C2815.1,515.8,2823.4,507.5,2839.8,492.1z M3026,310.9
		c1,0,5.1,4.1,12.3,12.3v175.1c0,1-4.1,5.1-12.3,12.3c-1,0-13.4-12.3-37-37V347.8C2989,346.8,3001.3,334.5,3026,310.9z"/>
	<path class="st1" d="M3081.8,293.6c1,0,13.4,12.3,37,37v185c0,1-12.3,13.4-37,37c-1,0-5.1-4.1-12.3-12.3V305.9
		C3069.5,304.9,3073.6,300.8,3081.8,293.6z M3074.4,567.3c31.6,7.4,48.9,11.9,51.8,13.6c3.1,6.4,24.5,40.9,64.1,103.6
		c-6.4,34.5-10.5,51.8-12.3,51.8h-1.2c-10.9,0-17.9-4.5-21-13.6c-6.4-8.8-35.1-54.9-86.3-138.1
		C3071.1,576,3072.7,570.2,3074.4,567.3z M3312.4,571l1.2,2.5v2.5c-24.5,52.4-52.4,102.6-83.9,150.4c-3.1,8.2-10.5,12.3-22.2,12.3
		c-2.1-3.7-6.2-20.5-12.3-50.6c42.7-69.9,64.9-105.2,66.6-106C3290,574.7,3306.8,571,3312.4,571z M3303.7,293.6
		c1,0,5.1,4.1,12.3,12.3v209.6c0,1-12.3,13.4-37,37c-1,0-5.1-4.1-12.3-12.3V330.6C3266.8,329.6,3279.1,317.2,3303.7,293.6z
		 M3327.2,589.5c2.1,1.8,22.2,33.5,60.4,94.9c-6.4,34.5-10.5,51.8-12.3,51.8h-1.2c-10.9,0-17.9-4.5-21-13.6l-53-83.8
		C3316.5,606.8,3325.5,590.4,3327.2,589.5z M3509.7,571c2.5,8.2,3.7,14.4,3.7,18.5l-93.7,146.7c-8.2,1.6-13.2,2.5-14.8,2.5
		c-2.1-3.7-6.2-20.5-12.3-50.6c42.7-69.9,64.9-105.2,66.6-106C3487.3,574.7,3504.1,571,3509.7,571z M3501,293.6
		c1,0,5.1,4.1,12.3,12.3v234.3c0,1-4.1,5.1-12.3,12.3c-1,0-13.4-12.3-37-37v-185C3464,329.6,3476.4,317.2,3501,293.6z"/>
	<path class="st1" d="M3556.5,298.5c1,0,13.4,12.3,37,37v140.6c0,1-12.3,13.4-37,37c-1,0-5.1-4.1-12.3-12.3V310.9
		C3544.2,309.8,3548.3,305.7,3556.5,298.5z M3556.5,524.2c1,0,13.4,12.3,37,37v140.6c0,1-12.3,13.4-37,37c-1,0-5.1-4.1-12.3-12.3
		V536.5C3544.2,535.5,3548.3,531.4,3556.5,524.2z M3607.1,349.1h14.8c15.8,13.2,43,39.9,81.4,80.2c2.3,0,10.9,8.2,25.9,24.7v49.3
		c0,1.6-0.8,2.5-2.5,2.5h-14.8c-0.8,0-1.2-0.4-1.2-1.2l-2.5,1.2c-35.1-37-69.7-71.9-103.6-104.8v-49.3
		C3604.8,349.9,3605.6,349.1,3607.1,349.1z M3779.7,298.5c1,0,5.1,4.1,12.3,12.3v189.9c0,1-4.1,5.1-12.3,12.3c-1,0-13.4-12.3-37-37
		V335.5C3742.7,334.5,3755.1,322.2,3779.7,298.5z M3779.7,524.2c1,0,5.1,4.1,12.3,12.3v189.9c0,1-4.1,5.1-12.3,12.3
		c-1,0-13.4-12.3-37-37V561.2C3742.7,560.1,3755.1,547.8,3779.7,524.2z"/>
	<path class="st1" d="M3823.2,301h1.2c1,0,17.1,16,48.1,48.1v125.8c0,1-12.3,13.4-37,37c-1,0-5.1-4.1-12.3-12.3V301z M3835.5,524.2
		c1,0,13.4,12.3,37,37v125.8c-28,29.8-44,46.2-48.1,49.3h-1.2V536.5C3823.2,535.5,3827.3,531.4,3835.5,524.2z M3835.5,298.5h199.8
		c1,0,5.1,4.1,12.3,12.3c0,1-12.3,13.4-37,37h-125.8c-29.8-27.9-46.2-44-49.3-48.1V298.5z M3883.6,689.4h125.8c1,0,13.4,12.3,37,37
		c0,1-4.1,5.1-12.3,12.3h-197.3v-1.2C3863.7,708.7,3879.3,692.7,3883.6,689.4z M4058.7,310.9c1,0,5.1,4.1,12.3,12.3v175.1
		c0,1-4.1,5.1-12.3,12.3c-1,0-13.4-12.3-37-37V347.8C4021.7,346.8,4034,334.5,4058.7,310.9z M4058.7,525.4c1,0,5.1,4.1,12.3,12.3
		v175.1c0,1-4.1,5.1-12.3,12.3c-1,0-13.4-12.3-37-37V562.4C4021.7,561.4,4034,549,4058.7,525.4z"/>
</g>
</svg>
