<?xml version="1.0" encoding="utf-8"?>
<!-- Generator: Adobe Illustrator 23.0.6, SVG Export Plug-In . SVG Version: 6.00 Build 0)  -->
<svg version="1.1" id="Layer_1" xmlns="http://www.w3.org/2000/svg" xmlns:xlink="http://www.w3.org/1999/xlink" x="0px" y="0px"
	 viewBox="0 0 1024 1024" style="enable-background:new 0 0 1024 1024;" xml:space="preserve">
<style type="text/css">
	.st0{enable-background:new    ;}
	.st1{fill:#FFFFFF;}
</style>
<title>wp-logo</title>
<g>
	<rect x="-28" y="-28" width="1080" height="1080"/>
</g>
<g class="st0">
	<path class="st1" d="M167.4,297.1c1,0,13.4,12.3,37,37v185c0,1-12.3,13.4-37,37c-1,0-5.1-4.1-12.3-12.3V309.4
		C155.1,308.4,159.2,304.3,167.4,297.1z M160,570.8c31.6,7.4,48.9,11.9,51.8,13.6c3.1,6.4,24.5,40.9,64.1,103.6
		c-6.4,34.5-10.5,51.8-12.3,51.8h-1.2c-10.9,0-17.9-4.5-21-13.6c-6.4-8.8-35.1-54.9-86.3-138.1C156.8,579.5,158.4,573.7,160,570.8z
		 M398,574.5l1.2,2.5v2.5c-24.5,52.4-52.4,102.6-83.9,150.4c-3.1,8.2-10.5,12.3-22.2,12.3c-2.1-3.7-6.2-20.5-12.3-50.6
		c42.7-69.9,64.9-105.2,66.6-106C375.6,578.2,392.5,574.5,398,574.5z M389.4,297.1c1,0,5.1,4.1,12.3,12.3V519c0,1-12.3,13.4-37,37
		c-1,0-5.1-4.1-12.3-12.3V334.1C352.4,333.1,364.7,320.7,389.4,297.1z M412.8,593c2.1,1.8,22.2,33.5,60.4,94.9
		c-6.4,34.5-10.5,51.8-12.3,51.8h-1.2c-10.9,0-17.9-4.5-21-13.6l-53-83.8C402.1,610.3,411.2,593.9,412.8,593z M595.3,574.5
		c2.5,8.2,3.7,14.4,3.7,18.5l-93.7,146.7c-8.2,1.6-13.2,2.5-14.8,2.5c-2.1-3.7-6.2-20.5-12.3-50.6c42.7-69.9,64.9-105.2,66.6-106
		C572.9,578.2,589.8,574.5,595.3,574.5z M586.7,297.1c1,0,5.1,4.1,12.3,12.3v234.3c0,1-4.1,5.1-12.3,12.3c-1,0-13.4-12.3-37-37v-185
		C549.7,333.1,562,320.7,586.7,297.1z"/>
	<path class="st1" d="M642.2,315.6c1,0,13.4,12.3,37,37v125.8c0,1-12.3,13.4-37,37c-1,0-5.1-4.1-12.3-12.3V327.9
		C629.9,326.9,634,322.8,642.2,315.6z M642.2,527.7c1,0,13.4,12.3,37,37v140.6c0,1-12.3,13.4-37,37c-1,0-5.1-4.1-12.3-12.3V540
		C629.9,539,634,534.9,642.2,527.7z M666.8,302h175.1c1,0,5.1,4.1,12.3,12.3c0,1-12.3,13.4-37,37H691.5c-1,0-13.4-12.3-37-37
		C654.5,313.3,658.6,309.2,666.8,302z M679.2,495.6h145.5c1,0,9.2,8.2,24.7,24.7v1.2c0,1-8.2,9.2-24.7,24.7H679.2
		c-1,0-9.2-8.2-24.7-24.7v-1.2C654.5,519.3,662.7,511,679.2,495.6z M865.4,314.4c1,0,5.1,4.1,12.3,12.3v175.1c0,1-4.1,5.1-12.3,12.3
		c-1,0-13.4-12.3-37-37V351.3C828.4,350.3,840.7,338,865.4,314.4z"/>
</g>
</svg>
